<svg xmlns="http://www.w3.org/2000/svg" width="2434.268" height="576.151" viewBox="0 0 2434.268 576.151"><g transform="translate(-11830.557 -4578.945)"><path d="M174.984,378.795V228.729q0-20.587-12.731-33.318t-32.234-12.731q-13.544,0-23.837,5.687a41.373,41.373,0,0,0-16.253,16.253,48.2,48.2,0,0,0-5.959,24.108C52,192.43,61.375,110.084,61.375,110.084h93.563q30.88,0,54.175,12.731a90.174,90.174,0,0,1,36.027,35.214q12.731,22.483,12.731,52.279V378.795Zm-173.9,0V-14.52H83.969V378.795Zm439.906,5.959q-42.8,0-76.117-17.607a131.561,131.561,0,0,1-52.279-49.029q-18.961-31.422-18.961-70.97t18.69-70.7c12.46-20.767,50.654-49.029,50.654-49.029q31.963-17.878,72.054-17.878,39.007,0,68.8,16.794a122.261,122.261,0,0,1,46.862,46.591q17.068,29.8,17.068,68.261a145.1,145.1,0,0,1-.812,14.9,178.905,178.905,0,0,1-2.98,18.149l-227,.542V217.893l191.782-.542L493,241.189q-.542-22.754-7.043-37.652t-19.236-22.754q-12.731-7.855-31.151-7.855-19.5,0-33.86,8.937A59.242,59.242,0,0,0,379.5,207.056q-7.855,16.254-7.855,39.552t8.4,39.819a60.194,60.194,0,0,0,23.837,25.462q15.44,8.938,36.569,8.937,19.5,0,35.214-6.772a77.3,77.3,0,0,0,27.63-20.316L548.8,339.246a122.856,122.856,0,0,1-47.133,34.131q-27.631,11.378-60.678,11.378Zm296.882,0q-42.8,0-76.117-17.607a131.567,131.567,0,0,1-52.279-49.029q-18.964-31.422-18.964-70.971t18.691-70.7a134.74,134.74,0,0,1,50.654-49.029q31.964-17.878,72.054-17.878,39.007,0,68.8,16.794a122.262,122.262,0,0,1,46.861,46.591q17.065,29.8,17.065,68.261a145.015,145.015,0,0,1-.812,14.9,178.87,178.87,0,0,1-2.98,18.149l-227,.542V217.893l191.782-.542-35.755,23.837q-.542-22.754-7.043-37.652T763.6,180.783q-12.731-7.855-31.151-7.855-19.5,0-33.86,8.937a59.242,59.242,0,0,0-22.212,25.192q-7.855,16.253-7.855,39.548t8.4,39.819a60.2,60.2,0,0,0,23.837,25.462q15.44,8.938,36.569,8.937,19.5,0,35.214-6.772a77.3,77.3,0,0,0,27.63-20.316l45.508,45.508a122.859,122.859,0,0,1-47.133,34.131q-27.63,11.381-60.679,11.381Z" transform="translate(11829.478 4652.24)"/><path d="M186.226,378.795V6.609h82.888V378.795ZM126.633,185.927V115.5H328.708v70.428ZM538.91,378.795V228.729q0-20.587-12.731-33.318t-32.235-12.731q-13.544,0-23.837,5.687a41.374,41.374,0,0,0-16.252,16.253,48.2,48.2,0,0,0-5.959,24.108c-31.964-36.3-27.648-118.644-27.648-118.644h98.618q30.88,0,54.175,12.731a90.174,90.174,0,0,1,36.027,35.214Q621.8,180.511,621.8,210.307V378.795Zm-173.9,0V-14.52h82.888V378.795Z" transform="translate(12579.942 4658.201)" fill="#1492e6"/><path d="M1514.024,452.265V302.2q0-20.587-12.73-33.318t-32.234-12.731q-13.544,0-23.838,5.687a41.37,41.37,0,0,0-16.252,16.253,48.185,48.185,0,0,0-5.961,24.108c-31.962-36.3,0-118.645,0-118.645h73.68q29.256,0,51.738,13.812a101.253,101.253,0,0,1,35.484,36.573,98.729,98.729,0,0,1,13,49.841V452.265Zm-173.9,0V183.554h82.888V452.265Zm421.483,118.1q-43.339,0-76.115-14.9t-51.738-41.986l50.924-50.925q14.089,16.794,31.7,25.463t42.525,8.668q30.882,0,48.488-15.169t17.607-42.8V371.543l14.086-57.426-12.461-57.426V183.554h81.264v253q0,40.631-18.961,70.428t-52.01,46.591Q1803.868,570.368,1761.6,570.368Zm-3.787-126.231q-36.3,0-64.469-17.336a123.946,123.946,0,0,1-44.424-47.133q-16.254-29.8-16.254-66.095,0-36.839,16.254-66.365a122.449,122.449,0,0,1,44.424-46.591q28.172-17.065,64.469-17.065h68.8s28.172,64.288,29.256,180.4a77.925,77.925,0,0,1-14.9,41.444,90.486,90.486,0,0,1-34.949,28.445Q1784.36,444.136,1757.817,444.136Zm15.711-73.678q17.335,0,30.066-7.585a51.4,51.4,0,0,0,19.5-20.316q6.773-12.731,6.771-28.984a62.362,62.362,0,0,0-6.771-29.254,50.935,50.935,0,0,0-19.5-20.587q-12.729-7.585-30.066-7.585-16.8,0-29.8,7.585a52.3,52.3,0,0,0-20.045,20.587,60.409,60.409,0,0,0-7.043,29.254,59.782,59.782,0,0,0,7.043,28.442,52.375,52.375,0,0,0,19.773,20.857q12.727,7.588,30.064,7.588Zm288.756,88.309a177.941,177.941,0,0,1-45.779-5.959,170.191,170.191,0,0,1-41.715-17.066,138.861,138.861,0,0,1-32.775-25.733l47.133-47.675a91.764,91.764,0,0,0,30.879,21.941,95.9,95.9,0,0,0,39.006,7.855q14.625,0,22.482-4.334t7.857-11.919q0-9.75-9.482-14.9a116.259,116.259,0,0,0-24.105-9.209q-14.625-4.062-30.883-8.937a138.305,138.305,0,0,1-30.877-13.544,67.782,67.782,0,0,1-23.838-24.108q-9.214-15.44-9.211-39.277,0-25.463,13-44.153t36.838-29.526q23.839-10.835,55.8-10.835,33.592,0,62.033,11.648t46.318,34.4l-47.133,47.675q-12.46-14.625-27.9-20.587a83.136,83.136,0,0,0-30.066-5.959q-14.089,0-21.129,4.062t-7.043,11.648q0,8.125,9.209,13t23.838,8.668q14.622,3.792,30.879,9.21a142.031,142.031,0,0,1,30.881,14.625,72.481,72.481,0,0,1,23.836,24.65q9.211,15.437,9.211,40.361,0,38.465-28.984,61.218t-78.283,22.759Z" transform="translate(12089.86 4584.729)" fill="#1492e6"/><g transform="translate(13158.398 4558.945)"><rect width="124.995" height="268" rx="62.498" transform="translate(91.754 209.152)" fill="#1492e6"/><g transform="translate(0.246 20)"><path d="M411.585,64.548C371.281,22.924,317.689,0,260.666,0S150.05,22.924,109.767,64.57a10.992,10.992,0,1,0,15.8,15.29C161.687,42.548,209.669,22,260.666,22s98.978,20.548,135.1,57.86a11.007,11.007,0,0,0,15.817-15.312Z" transform="translate(-106.661)"/><path d="M259.3,64.064c-40,0-77.55,16.016-105.753,45.166a11,11,0,1,0,15.818,15.29c24-24.794,55.946-38.456,89.936-38.456s65.934,13.662,89.936,38.456a10.876,10.876,0,0,0,7.9,3.344,11.011,11.011,0,0,0,7.92-18.656C336.847,80.08,299.293,64.064,259.3,64.064Z" transform="translate(-105.292 2.002)"/><path d="M213.158,169.18c23.936-24.75,65.6-24.75,89.54,0a11.008,11.008,0,0,0,15.818-15.312c-32.274-33.4-88.9-33.4-121.176,0a11.007,11.007,0,1,0,15.817,15.312Z" transform="translate(-103.924 4.025)"/></g><circle cx="31.249" cy="31.249" r="31.249" transform="translate(123.002 239.651)" fill="#fff"/></g></g></svg>